<svg xmlns="http://www.w3.org/2000/svg" viewBox="57.7 -21 884.7 750" enable-background="new 57.7 -21 884.7 750"><path fill="#99B931" d="M871.2 190.5c21.8 24.4 39.1 51.6 51.9 81.7 12.8 30.1 19.2 65.1 19.2 104.8 0 57.7-7.1 106.4-21.2 146.1-14.1 39.8-32.7 72.4-55.8 98.1-23.1 25.7-48.4 45.9-76 60.6-27.6 14.7-54.5 25.3-80.8 31.7-26.3 6.4-51 10.3-74 11.5-23.1 1.3-40.4 1.9-51.9 1.9-7.7 0-18.9.3-33.7 1-14.7.7-31.1 1-49 1-18 0-34.3-.3-49-1-14.7-.6-26-1-33.6-1-11.5 0-28.8-.6-51.9-1.9-23.1-1.3-47.8-5.1-74-11.5-26.3-6.4-53.2-17-80.8-31.7-27.6-14.7-52.9-34.9-76-60.6-23.1-25.6-41.7-58.3-55.8-98.1-14.1-39.7-21.2-88.5-21.2-146.1 0-39.7 6.4-74.7 19.2-104.8 12.8-30.1 30.1-57.4 51.9-81.7-1.3-3.8-2.3-12.8-2.9-26.9-.7-14.1 0-30.8 1.9-50s5.4-40.7 10.6-64.4c5.1-23.7 12.2-47.1 21.2-70.2 16.7 2.6 36.5 7.7 59.6 15.4 19.2 6.4 42.3 16.7 69.2 30.8 26.9 14.1 57 32.1 90.4 53.8 14.1-3.8 32-6.7 53.8-8.6 21.8-1.9 44.2-2.9 67.3-2.9 23.1 0 45.5 1 67.3 2.9 21.8 1.9 39.7 4.8 53.8 8.6 33.3-21.8 63.5-39.7 90.4-53.8 26.9-14.1 50-24.3 69.2-30.8 23.1-7.7 42.9-12.8 59.6-15.4 8.9 23.1 16 46.5 21.2 70.2 5.1 23.7 8.6 45.2 10.6 64.4 1.9 19.2 2.5 35.9 1.9 50-.4 14.1-1.4 23.1-2.6 26.9zm-369.3 494.3c44.9 0 87.2-1.9 126.9-5.8 39.7-3.8 74-12.5 102.9-26 28.8-13.5 51.6-33.3 68.3-59.6 16.7-26.3 25-61.2 25-104.8 0-21.8-4.2-42.3-12.5-61.6-8.3-19.2-21.5-37.2-39.4-53.8-14.1-12.8-31.1-21.5-51-26s-41.4-6.7-64.4-6.7-47.8 1.3-74 3.8c-26.3 2.6-53.5 3.8-81.7 3.8h-3.9c-28.2 0-55.5-1.3-81.7-3.8-26.3-2.5-51-3.8-74-3.8-23.1 0-44.2 2.3-63.5 6.7-19.2 4.5-36.6 13.2-51.9 26-18 16.7-30.8 34.6-38.5 53.8-7.7 19.2-11.5 39.8-11.5 61.6 0 43.6 8.3 78.5 25 104.8 16.7 26.3 39.4 46.2 68.3 59.6 28.8 13.5 62.8 22.1 101.9 26 39.1 3.8 81.1 5.8 126 5.8h3.7zm-153.8-269.2c17.9 0 32.7 8.3 44.2 25s17.3 37.2 17.3 61.5c0 24.4-5.8 44.9-17.3 61.6-11.5 16.7-26.3 25-44.2 25-18 0-33-8.3-45.2-25-12.2-16.7-18.3-37.2-18.3-61.6 0-24.3 6.1-44.9 18.3-61.5 12.1-16.7 27.2-25 45.2-25zm305.8 0c17.9 0 32.7 8.3 44.2 25s17.3 37.2 17.3 61.5c0 24.4-5.8 44.9-17.3 61.6-11.5 16.7-26.3 25-44.2 25-18 0-33-8.3-45.2-25-12.2-16.7-18.3-37.2-18.3-61.6 0-24.3 6.1-44.9 18.3-61.5 12.1-16.7 27.2-25 45.2-25z"/></svg>